<?xml version="1.0" encoding="UTF-8"?>
<svg id="Capa_2" data-name="Capa 2" xmlns="http://www.w3.org/2000/svg" viewBox="0 0 695.12 695.12">
  <defs>
    <style>
      .cls-1 {
        fill: #fff;
      }

      .cls-1, .cls-2, .cls-3 {
        stroke-width: 0px;
      }

      .cls-2 {
        fill: #ffce00;
      }

      .cls-3 {
        fill: #1d1d1b;
      }
    </style>
  </defs>
  <g id="Capa_1-2" data-name="Capa 1">
    <circle class="cls-3" cx="347.56" cy="347.56" r="347.56"/>
    <path class="cls-2" d="m529.33,235.06s12.01-1.55,23.05,4.26c0,0-7.36-75.92-101.1-111.07,0,0,.7-16.51,1.57-24.21,0,0-8.35-.15-10.89-.07l13.58-49.89-49.39,23.39-42.27-40.67-37.33,40.38-52.15-23.82,13.94,47.35-13.94,2.47,4.36,22.37s-47.32,8.99-72.48,43.09c-26.15,35.44-41.06,82.7-62.17,104.2,0,0,7.41,9.01,28.76,1.89,0,0-19.75,40.53-20.92,95.72-1.16,55.2-13.36,63.33-13.36,63.33,0,0,18.3,9.1,44.16-10.65,0,0,1.07,34.09,21.59,61.01,20.53,26.92,38.93,81.92,33.51,107.1,0,0,28.03-16.95,33.65-42.12,0,0,19.42,32.83,38.59,52.39,0,0,20.24,16.61,21.69,56.84,0,0,63.33-37.48,100.66-114.75,0,0,12.93,13.85,12.93,34.86,0,0,59.26-70.59,70.5-153.1,0,0,12.3,3.58,17.62,25.47,0,0,54.52-113.49-4.16-215.75Z"/>
    <polygon class="cls-1" points="431.92 73.64 444.22 68.79 433.08 105.01 412.25 106.68 407.71 127.77 386.99 127.77 392.82 102.19 423.4 99.78 431.92 73.64"/>
    <polygon class="cls-1" points="365.27 47.54 404.34 83.56 418.58 78.26 419.52 79.13 401.95 90.97 365.27 65.04 365.27 47.54"/>
    <path class="cls-1" d="m380.88,102.78l-11.15,4.57c-2.86,1.17-6.05,1.23-8.95.15l-12.73-4.72c14.53-5.04,32.83,0,32.83,0Z"/>
    <path class="cls-1" d="m307.53,186.26c-1.38-1.23-5.16-3.05-5.16-3.05,46.92-3.05,62.53,14.53,62.53,14.53,27.74-21.79,56.99-10.41,56.99-10.41-4.74.48-8.47,2.32-8.47,2.32,32.54,6.29,40.74,42.95,40.74,42.95-23.02-7.04-49.17.29-49.17.29-.15-3.56-2.9-9.3-2.9-9.3-12.85,12.27-10.39,40.67-10.39,40.67,2.83-4.5,12.64-11.26,12.64-11.26,9.51,7.99,23.75,10.39,23.75,10.39-2.32-1.6-6.83-6.68-6.83-6.68,18.16,3.41,25.18-8.18,25.18-8.18,2.81,3.13,3.97,7.11,4.37,10.7.63,5.67-.83,11.33-3.77,16.21-1.38,2.3-3.22,4.88-5.54,7.27-6.2,6.39-23.92,20.92-23.92,20.92,8.23,11.52,8.52,25.56,8.52,25.56.68,22.85-14.14,25.76-14.14,25.76,0,0-8.62,2.61-22.18-5.42-13.56-8.04-18.01-24.98-18.01-24.98l12.4-10.56s25.56-18.69,5.33-21.69c-20.24-3-50.45-1.74-50.45-1.74,11.91-39.9-11.91-68.92-11.91-68.92.44,9.59-4.65,11.04-4.65,11.04-22.59-8.42-45.32.36-45.32.36,3.49-27.45,30.36-46.77,30.36-46.77Z"/>
    <path class="cls-1" d="m283.35,247.84s27.24,20.55,37.77,5.37c0,0,.51,15.32,1.53,20.99,0,0-17.29-9.01-35.51,4.72-9.59-9.2-10.85-19.56-3.78-31.08Z"/>
    <path class="cls-1" d="m309.13,349.52c-5.39-6.2-5.2-14.16-3.97-20.01,1.1-5.23,3.64-10.02,7.17-14.03,4.5-5.12,12.12-11.72,21.79-12.24,0,0,7.75,14.23,24.5,21.59,0,0,.87,7.36-9.78,17.53-10.65,10.17-18.88,12.99-18.88,12.99,0,0-11.14,5.31-20.82-5.83Z"/>
    <path class="cls-1" d="m337.24,387.51c-6.17,6.39-7.84,13-7.84,13-7.48-10.75-7.77-29.2-7.77-29.2,24.77-3.7,32.97-20.34,32.97-20.34h19.25c13.73,18.37,33.92,20.63,33.92,20.63.73,14.89-7.26,28.69-7.26,28.69-5.81-12.27-8.64-12.56-8.64-12.56-3.34,25.06-27.16,35.95-27.16,35.95-22.15-9.73-27.45-36.17-27.45-36.17Z"/>
    <path class="cls-1" d="m451.28,500.2c-2.13-11.91-7.17-18.79-7.17-18.79-8.91,18.79-36.02,54.42-50.94,70.88-14.91,16.46-32.34,46.87-32.34,46.87,12.4-56.36,48.61-103.23,62.17-130.15,13.56-26.92,8.13-62.56,8.13-62.56,11.77,14.23,17.82,40.86,17.82,40.86,20.34-44.74,14.72-90.71,14.72-90.71,29.44,67.06-12.39,143.58-12.39,143.58Z"/>
    <path class="cls-1" d="m493.51,410.72c7.75-63.91-27.5-119.3-27.5-119.3,62.56,30.41,27.5,119.3,27.5,119.3Z"/>
    <path class="cls-1" d="m519.46,329.92c-4.07-42.84-45.71-80.34-45.71-80.34,20.14,3.1,29.24,11.81,29.24,11.81-8.52-42.8-45.9-77.95-45.9-77.95,80.86,27.99,62.36,146.48,62.36,146.48Z"/>
  </g>
</svg>